HIERARCHY
ROOT Hips
{
  OFFSET 5.84602e-005 68.8428 3.50346
  CHANNELS 6 Xposition Yposition Zposition Zrotation Xrotation Yrotation
  JOINT Spine
  {
    OFFSET 0 8.597 -4.6522
    CHANNELS 3 Zrotation Xrotation Yrotation
    JOINT Spine1
    {
      OFFSET 0 7.8454 0.4098
      CHANNELS 3 Zrotation Xrotation Yrotation
      JOINT Spine2
      {
        OFFSET 0 9.7078 -2.1609
        CHANNELS 3 Zrotation Xrotation Yrotation
        JOINT Neck
        {
          OFFSET 0 21.8761 -0.4549
          CHANNELS 3 Zrotation Xrotation Yrotation
          JOINT Head
          {
            OFFSET 0 12.3537 3.3602
            CHANNELS 3 Zrotation Xrotation Yrotation
            End Site
            {
              OFFSET 0.0001 18.9506 0.5657
            }
          }
        }
        JOINT LeftShoulder
        {
          OFFSET 2.2086 21.1115 7.2329
          CHANNELS 3 Zrotation Xrotation Yrotation
          JOINT LeftArm
          {
            OFFSET 13.1193 3.0282 -4.8998
            CHANNELS 3 Zrotation Xrotation Yrotation
            JOINT LeftForeArm
            {
              OFFSET 27.4081 -0.0973053 -0.2375
              CHANNELS 3 Zrotation Xrotation Yrotation
              JOINT LeftHand
              {
                OFFSET 22.8641 0.0662994 -0.1369
                CHANNELS 3 Zrotation Xrotation Yrotation
                JOINT LeftHandIndex1
                {
                  OFFSET 8.8614 0.775009 2.4612
                  CHANNELS 3 Zrotation Xrotation Yrotation
                  JOINT LeftHandIndex2
                  {
                    OFFSET 3.3146 -0.808304 0.5841
                    CHANNELS 3 Zrotation Xrotation Yrotation
                    JOINT LeftHandIndex3
                    {
                      OFFSET 2.2628 -0.552002 0.3989
                      CHANNELS 3 Zrotation Xrotation Yrotation
                      End Site
                      {
                        OFFSET 1.6102 -0.4807 0.2612
                      }
                    }
                  }
                }
                JOINT LeftHandMiddle1
                {
                  OFFSET 8.9937 0.895004 0.2143
                  CHANNELS 3 Zrotation Xrotation Yrotation
                  JOINT LeftHandMiddle2
                  {
                    OFFSET 4.0984 0.0113983 -0.0242
                    CHANNELS 3 Zrotation Xrotation Yrotation
                    JOINT LeftHandMiddle3
                    {
                      OFFSET 2.2716 0.00689697 -0.0138001
                      CHANNELS 3 Zrotation Xrotation Yrotation
                      End Site
                      {
                        OFFSET 2.0404 -0.1441 0.0027
                      }
                    }
                  }
                }
                JOINT LeftHandRing1
                {
                  OFFSET 8.5234 0.597198 -2.0164
                  CHANNELS 3 Zrotation Xrotation Yrotation
                  JOINT LeftHandRing2
                  {
                    OFFSET 3.7188 -0.188293 -0.2328
                    CHANNELS 3 Zrotation Xrotation Yrotation
                    JOINT LeftHandRing3
                    {
                      OFFSET 2.1191 -0.106598 -0.1332
                      CHANNELS 3 Zrotation Xrotation Yrotation
                      End Site
                      {
                        OFFSET 1.8737 -0.2304 -0.0886
                      }
                    }
                  }
                }
                JOINT LeftHandPinky1
                {
                  OFFSET 7.9094 -0.601089 -3.4825
                  CHANNELS 3 Zrotation Xrotation Yrotation
                  JOINT LeftHandPinky2
                  {
                    OFFSET 2.2874 -0.477005 -0.6314
                    CHANNELS 3 Zrotation Xrotation Yrotation
                    JOINT LeftHandPinky3
                    {
                      OFFSET 1.6774 -0.349396 -0.4633
                      CHANNELS 3 Zrotation Xrotation Yrotation
                      End Site
                      {
                        OFFSET 1.4888 -0.4091 -0.3416
                      }
                    }
                  }
                }
                JOINT LeftHandThumb1
                {
                  OFFSET 1.833 -1.3875 1.3896
                  CHANNELS 3 Zrotation Xrotation Yrotation
                  JOINT LeftHandThumb2
                  {
                    OFFSET 3.4129 -1.121 2.5732
                    CHANNELS 3 Zrotation Xrotation Yrotation
                    JOINT LeftHandThumb3
                    {
                      OFFSET 2.2474 -0.804199 1.6192
                      CHANNELS 3 Zrotation Xrotation Yrotation
                      End Site
                      {
                        OFFSET 1.6527 -0.5689 1.1317
                      }
                    }
                  }
                }
              }
            }
          }
        }
        JOINT RightShoulder
        {
          OFFSET -2.2086 21.1115 7.2329
          CHANNELS 3 Zrotation Xrotation Yrotation
          JOINT RightArm
          {
            OFFSET -13.1216 3.0287 -4.9007
            CHANNELS 3 Zrotation Xrotation Yrotation
            JOINT RightForeArm
            {
              OFFSET -27.4081 -0.0973053 -0.2375
              CHANNELS 3 Zrotation Xrotation Yrotation
              JOINT RightHand
              {
                OFFSET -22.8641 0.0664063 -0.1369
                CHANNELS 3 Zrotation Xrotation Yrotation
                JOINT RightHandIndex1
                {
                  OFFSET -8.8614 0.774994 2.4612
                  CHANNELS 3 Zrotation Xrotation Yrotation
                  JOINT RightHandIndex2
                  {
                    OFFSET -3.3146 -0.808304 0.5841
                    CHANNELS 3 Zrotation Xrotation Yrotation
                    JOINT RightHandIndex3
                    {
                      OFFSET -2.2628 -0.552002 0.3989
                      CHANNELS 3 Zrotation Xrotation Yrotation
                      End Site
                      {
                        OFFSET -1.6102 -0.4807 0.2612
                      }
                    }
                  }
                }
                JOINT RightHandMiddle1
                {
                  OFFSET -8.9937 0.894989 0.2143
                  CHANNELS 3 Zrotation Xrotation Yrotation
                  JOINT RightHandMiddle2
                  {
                    OFFSET -4.0984 0.0113983 -0.0242
                    CHANNELS 3 Zrotation Xrotation Yrotation
                    JOINT RightHandMiddle3
                    {
                      OFFSET -2.2716 0.00691223 -0.0138001
                      CHANNELS 3 Zrotation Xrotation Yrotation
                      End Site
                      {
                        OFFSET -2.0404 -0.1441 0.0027
                      }
                    }
                  }
                }
                JOINT RightHandRing1
                {
                  OFFSET -8.5234 0.597198 -2.0164
                  CHANNELS 3 Zrotation Xrotation Yrotation
                  JOINT RightHandRing2
                  {
                    OFFSET -3.7188 -0.188309 -0.2328
                    CHANNELS 3 Zrotation Xrotation Yrotation
                    JOINT RightHandRing3
                    {
                      OFFSET -2.1191 -0.106598 -0.1332
                      CHANNELS 3 Zrotation Xrotation Yrotation
                      End Site
                      {
                        OFFSET -1.8737 -0.2304 -0.0886
                      }
                    }
                  }
                }
                JOINT RightHandPinky1
                {
                  OFFSET -7.9094 -0.601105 -3.4825
                  CHANNELS 3 Zrotation Xrotation Yrotation
                  JOINT RightHandPinky2
                  {
                    OFFSET -2.2874 -0.477005 -0.6314
                    CHANNELS 3 Zrotation Xrotation Yrotation
                    JOINT RightHandPinky3
                    {
                      OFFSET -1.6774 -0.349396 -0.4633
                      CHANNELS 3 Zrotation Xrotation Yrotation
                      End Site
                      {
                        OFFSET -1.4888 -0.4091 -0.3416
                      }
                    }
                  }
                }
                JOINT RightHandThumb1
                {
                  OFFSET -1.833 -1.38751 1.3896
                  CHANNELS 3 Zrotation Xrotation Yrotation
                  JOINT RightHandThumb2
                  {
                    OFFSET -3.41299 -1.12099 2.5732
                    CHANNELS 3 Zrotation Xrotation Yrotation
                    JOINT RightHandThumb3
                    {
                      OFFSET -2.24741 -0.804108 1.6192
                      CHANNELS 3 Zrotation Xrotation Yrotation
                      End Site
                      {
                        OFFSET -1.6527 -0.5689 1.1317
                      }
                    }
                  }
                }
              }
            }
          }
        }
      }
    }
  }
  JOINT RightUpLeg
  {
    OFFSET -9.1966 3.8861 -0.7581
    CHANNELS 3 Zrotation Xrotation Yrotation
    JOINT RightLeg
    {
      OFFSET -0.7359 -41.0265 0
      CHANNELS 3 Zrotation Xrotation Yrotation
      JOINT RightFoot
      {
        OFFSET 0 -40.2855 0
        CHANNELS 3 Zrotation Xrotation Yrotation
        JOINT RightToeBase
        {
          OFFSET 0 -5.6122 11.7359
          CHANNELS 3 Zrotation Xrotation Yrotation
          End Site
          {
            OFFSET 0 0 7.8731
          }
        }
      }
    }
  }
  JOINT LeftUpLeg
  {
    OFFSET 9.1965 3.8864 -0.7581
    CHANNELS 3 Zrotation Xrotation Yrotation
    JOINT LeftLeg
    {
      OFFSET 0.7359 -41.0268 0
      CHANNELS 3 Zrotation Xrotation Yrotation
      JOINT LeftFoot
      {
        OFFSET 0 -40.2855 0
        CHANNELS 3 Zrotation Xrotation Yrotation
        JOINT LeftToeBase
        {
          OFFSET 0 -5.6122 11.7359
          CHANNELS 3 Zrotation Xrotation Yrotation
          End Site
          {
            OFFSET 0 0 7.8731
          }
        }
      }
    }
  }
}
MOTION
Frames:	4
Frame Time:	0.0333333
5.84602e-005 68.8428 3.50346 0 0 -0 0 0 -0 0 0 -0 0 0 -0 0 0 -0 0 0 -0 0 0 -0 0 0 -0 0 0 -0 0 0 -0 0 0 -0 0 0 -0 0 0 -0 0 0 -0 -0.0146107 -8.87603e-005 -2.63497e-007 2.99804e-018 -2.42657e-020 -1.42182e-022 0 0 -0 -0.0187562 -0.001176 5.858e-005 5.06224e-018 3.88251e-019 1.21329e-020 0 0 -0 -0.012269 -0.00324817 0.000675346 -1.74678e-018 3.88251e-019 -0 0 0 -0 0 0 -0 0 0 -0 0 0 -0 0 0 -0 0 0 -0 0 0 -0 0 0 -0 0 0 -0 0 0 -0 0 0 -0 0.0149955 -9.10982e-005 2.64101e-007 -9.69331e-018 1.21329e-020 -4.7394e-023 0 0 -0 0.0189956 -0.00119102 -5.96516e-005 -5.41541e-019 0 2.42657e-020 0 0 -0 0.0122698 -0.00324857 -0.000673756 -2.00796e-019 0 -1.94126e-019 0 0 -0 0 0 -0 0 0 -0 3.39842 1.33031 -0.0637918 -5.65207e-008 0.834868 -0.000436188 -3.39935 -2.16518 -0.0642563 -8.89002e-024 -1.18485e-023 -1.48106e-024 -3.39844 1.35642 0.0640283 -3.18788e-007 0.782166 -0.000588827 3.39931 -2.13858 0.0634662 1.1399e-023 0 -0 
0.145682 9.82302 6.85347 -0 -80.21 -0 -0.0217739 9.17532 -0.13824 -0.0211968 18.3507 -0.278364 -0.0211968 18.3507 -0.278364 0.758877 8.18848 -42.1938 -0.0887203 0.571787 8.01483 -6.89789 -0.197129 7.98871 -63.1617 2.88879 25.6823 28.7868 8.88092 -66.46 1.32429 19.105 -6.88416 -2.78299e-015 -2.98177e-015 6.36111e-015 -7.95139e-016 1.68967e-015 6.36111e-015 -3.18055e-015 5.66536e-015 -3.18055e-015 -2.78299e-015 -2.98177e-015 6.36111e-015 -0.0146037 -8.91855e-005 -2.91454e-006 -3.97569e-016 2.78299e-015 -3.18055e-015 -2.78299e-015 -2.98177e-015 6.36111e-015 -0.0187746 -0.00117897 5.9705e-005 2.78299e-015 5.46658e-015 3.18055e-015 -2.78299e-015 -2.98177e-015 6.36111e-015 -0.0122625 -0.00324858 0.000672591 -1.75116e-007 -9.57031e-010 1.78344e-006 -2.78299e-015 -2.98177e-015 6.36111e-015 -7.95139e-016 1.68967e-015 6.36111e-015 -3.18055e-015 5.66536e-015 -3.18055e-015 2.77163 -7.3988 6.79573 53.0377 27.5949 21.8728 35.5733 1.95897 57.5739 -28.1471 3.67368 -7.11244 -5.00182e-007 -3.95721e-006 -1.06831e-008 -2.2287e-006 -1.72852e-006 1.35627e-006 -5.00182e-007 -3.95721e-006 -1.06832e-008 -5.00182e-007 -3.95721e-006 -1.06831e-008 0.0149791 -8.79098e-005 8.10389e-007 4.80207e-007 -1.48909e-006 1.01124e-006 -5.00182e-007 -3.95721e-006 -1.06831e-008 0.0190059 -0.00118881 -6.1107e-005 -5.00632e-007 -3.95719e-006 -1.00201e-008 -5.00182e-007 -3.95721e-006 -1.06831e-008 0.012258 -0.00324859 -0.000674381 -1.48089e-006 -6.42487e-006 -1.03159e-006 -5.00182e-007 -3.95721e-006 -1.06831e-008 -2.2287e-006 -1.72852e-006 1.35627e-006 -5.00182e-007 -3.95721e-006 -1.06832e-008 -35.8667 -37.3185 -6.01882 158.138 84.8972 -161.592 -23.6994 33.6114 45.1137 -3.48015e-008 -1.45469e-008 2.10075e-007 9.30165 -33.5003 -11.7457 -162.404 73.5211 166.721 13.3674 -7.281 6.34677 -1.79399e-006 -4.92419e-007 3.71365e-007 
0.194171 0.225059 6.11227 -180 -86.6647 -180 -0.0281809 10.5779 -0.163837 -0.0256354 21.1557 -0.330983 -0.0256356 21.1557 -0.330983 1.55382 8.04952 -49.1418 -0.102635 1.21348 9.31621 -8.00932 0.115243 9.52542 -73.7395 3.23412 29.8966 34.9599 6.02053 -76.8449 1.88887 22.3437 -8.19506 -7.95139e-016 2.38542e-015 -1.59028e-015 3.97569e-016 -6.95746e-016 -0 0 2.5345e-015 -0 -7.95139e-016 2.38542e-015 -1.59028e-015 -0.0146171 -8.69314e-005 4.5198e-006 3.97569e-016 2.98177e-015 -1.59028e-015 -7.95139e-016 2.38542e-015 -1.59028e-015 -0.0187844 -0.00117445 5.05858e-005 -3.97569e-016 5.61567e-015 -1.59028e-015 -7.95139e-016 2.38542e-015 -1.59028e-015 -0.0122518 -0.00323867 0.000677186 7.95139e-016 -5.46658e-016 -0 -7.95139e-016 2.38542e-015 -1.59028e-015 3.97569e-016 -6.95746e-016 -0 0 2.5345e-015 -0 3.57755 -8.11302 7.93353 59.4365 31.3001 26.5267 41.2008 1.15514 66.1574 -31.7267 4.20505 -8.25761 -6.36111e-015 -6.36111e-015 -0 -3.18055e-015 -8.74653e-015 -3.18055e-015 -3.18055e-015 -3.97569e-015 -3.18055e-015 -6.36111e-015 -6.36111e-015 -0 0.0149884 -9.15199e-005 -3.78854e-006 3.18055e-015 -7.95139e-016 3.18055e-015 -6.36111e-015 -6.36111e-015 -0 0.0190005 -0.00119325 -5.99029e-005 9.54166e-015 4.77083e-015 -0 -6.36111e-015 -6.36111e-015 -0 0.0122562 -0.00324454 -0.000677964 -4.41391e-032 7.95139e-016 3.18055e-015 -6.36111e-015 -6.36111e-015 -0 -3.18055e-015 -8.74653e-015 -3.18055e-015 -3.18055e-015 -3.97569e-015 -3.18055e-015 -43.3761 -43.3498 -8.16862 173.604 70.543 -177.597 -33.2528 35.0304 55.2229 4.30592e-007 -1.67963e-006 7.40525e-009 9.56304 -38.2969 -13.5223 -169.362 57.1547 174.214 15.4221 -8.04268 7.61573 -4.77083e-015 -1.59028e-015 -0 
0.179901 2.67945 6.33293 -180 -89.9981 -180 -0.0329126 10.0734 -0.157143 -0.0381525 20.1468 -0.315816 -0.0381526 20.1468 -0.315816 0.74182 7.51164 -47.303 -0.0676187 1.87725 8.97004 -7.70697 0.552051 9.47925 -71.0475 3.15143 28.826 33.4293 6.87927 -74.2591 1.54388 21.7763 -7.88151 -1.78906e-015 8.59744e-015 -1.59028e-015 -3.97569e-016 2.48481e-015 1.59028e-015 -5.96354e-016 2.5345e-015 -0 -1.78906e-015 8.59744e-015 -1.59028e-015 -0.0146182 -8.76477e-005 -1.18648e-006 -9.93923e-016 5.86415e-015 1.59028e-015 -1.78906e-015 8.59744e-015 -1.59028e-015 -0.0187454 -0.00117472 5.58176e-005 -1.98785e-016 -3.37934e-015 -0 -1.78906e-015 8.59744e-015 -1.59028e-015 -0.0122807 -0.00324943 0.000675014 -1.59028e-015 -6.4605e-016 1.59028e-015 -1.78906e-015 8.59744e-015 -1.59028e-015 -3.97569e-016 2.48481e-015 1.59028e-015 -5.96354e-016 2.5345e-015 -0 3.64883 -7.21944 7.64722 57.8806 30.3952 25.3024 39.9009 0.481584 62.7307 -29.4095 3.98374 -7.92862 -1.59028e-015 1.59028e-015 -0 1.59028e-015 3.97569e-015 -3.18055e-015 -3.18055e-015 -7.95139e-016 -6.36111e-015 -1.59028e-015 1.59028e-015 -0 0.0149929 -9.30533e-005 1.64902e-006 -3.18055e-015 7.95139e-016 6.36111e-015 -1.59028e-015 1.59028e-015 -0 0.0189918 -0.00120079 -6.3207e-005 4.77083e-015 4.77083e-015 3.18055e-015 -1.59028e-015 1.59028e-015 -0 0.0122573 -0.00324059 -0.00067371 -1.59028e-014 -2.8625e-014 3.18055e-015 -1.59028e-015 1.59028e-015 -0 1.59028e-015 3.97569e-015 -3.18055e-015 -3.18055e-015 -7.95139e-016 -6.36111e-015 -41.9148 -41.7635 -8.18724 172.32 74.2209 -176.18 -31.2924 34.691 52.9433 4.34361e-007 -1.67808e-006 -6.70271e-009 10.2614 -37.2001 -12.3948 -168.305 61.332 172.992 15.4003 -7.98837 6.92452 -1.0068e-006 2.31473e-006 1.53346e-006 
